<svg width="40" height="41" viewBox="0 0 40 41" fill="none" xmlns="http://www.w3.org/2000/svg">
<path fill-rule="evenodd" clip-rule="evenodd" d="M27.0263 29.9395C27.0263 29.9395 26.176 28.9362 25.4674 28.0495C28.5615 27.1862 29.7425 25.2729 29.7425 25.2729C28.7741 25.9029 27.8529 26.3462 27.0263 26.6495C25.8453 27.1395 24.7116 27.4662 23.6015 27.6529C21.3341 28.0729 19.2556 27.9562 17.4842 27.6295C16.1379 27.3729 14.9806 26.9995 14.0122 26.6262C13.4689 26.4162 12.8785 26.1595 12.288 25.8329C12.2526 25.8095 12.2171 25.792 12.1817 25.7745C12.1463 25.757 12.1108 25.7395 12.0754 25.7162C12.0282 25.6929 12.0046 25.6695 11.9809 25.6462C11.5558 25.4129 11.3196 25.2495 11.3196 25.2495C11.3196 25.2495 12.4533 27.1162 15.4529 28.0029C14.7444 28.8895 13.8705 29.9395 13.8705 29.9395C8.65066 29.7762 6.66666 26.3929 6.66666 26.3929C6.66666 18.8795 10.0678 12.7895 10.0678 12.7895C13.4689 10.2695 16.7048 10.3395 16.7048 10.3395L16.9409 10.6195C12.6895 11.8329 10.7291 13.6762 10.7291 13.6762C10.7291 13.6762 11.2488 13.3962 12.1227 12.9995C14.6499 11.9029 16.6575 11.5995 17.4842 11.5295L17.5371 11.5207C17.6563 11.5007 17.762 11.4829 17.8857 11.4829C19.3265 11.2962 20.9562 11.2495 22.6568 11.4362C24.9006 11.6929 27.3097 12.3462 29.7661 13.6762C29.7661 13.6762 27.9002 11.9262 23.8849 10.7129L24.2156 10.3395C24.2156 10.3395 27.4514 10.2695 30.8526 12.7895C30.8526 12.7895 34.2537 18.8795 34.2537 26.3929C34.2537 26.3929 32.2461 29.7762 27.0263 29.9395ZM16.7087 19.4663C15.373 19.4663 14.3185 20.6675 14.3185 22.133C14.3185 23.5984 15.3964 24.7996 16.7087 24.7996C18.0443 24.7996 19.0988 23.5984 19.0988 22.133C19.1223 20.6675 18.0443 19.4663 16.7087 19.4663ZM22.8715 22.133C22.8715 20.6675 23.926 19.4663 25.2616 19.4663C26.5973 19.4663 27.6518 20.6675 27.6518 22.133C27.6518 23.5984 26.5973 24.7996 25.2616 24.7996C23.9494 24.7996 22.8715 23.5984 22.8715 22.133Z" fill="#332974"/>
</svg>
