<svg width="40" height="41" viewBox="0 0 40 41" fill="none" xmlns="http://www.w3.org/2000/svg">
<path d="M20.0026 13.4899C16.2215 13.4899 13.1604 16.5543 13.1604 20.3321C13.1604 24.1132 16.2248 27.1743 20.0026 27.1743C23.7837 27.1743 26.8448 24.1099 26.8448 20.3321C26.8448 16.551 23.7804 13.4899 20.0026 13.4899ZM20.0026 24.7732C17.5482 24.7732 15.5615 22.7854 15.5615 20.3321C15.5615 17.8788 17.5493 15.891 20.0026 15.891C22.456 15.891 24.4437 17.8788 24.4437 20.3321C24.4448 22.7854 22.4571 24.7732 20.0026 24.7732Z" fill="#332974"/>
<path d="M25.4981 7.08962C23.0447 6.97518 16.9681 6.98073 14.5125 7.08962C12.3547 7.19073 10.4514 7.71184 8.91694 9.24629C6.35249 11.8107 6.68027 15.2663 6.68027 20.3341C6.68027 25.5207 6.39138 28.8963 8.91694 31.4218C11.4914 33.9952 14.9969 33.6585 20.0047 33.6585C25.1425 33.6585 26.9158 33.6618 28.7325 32.9585C31.2025 31.9996 33.0669 29.7918 33.2492 25.8263C33.3647 23.3718 33.3581 17.2963 33.2492 14.8407C33.0292 10.1596 30.5169 7.32073 25.4981 7.08962ZM29.3814 29.7252C27.7003 31.4063 25.3681 31.2563 19.9725 31.2563C14.4169 31.2563 12.1892 31.3385 10.5636 29.7085C8.69138 27.8452 9.03027 24.853 9.03027 20.3163C9.03027 14.1774 8.40027 9.75629 14.5614 9.44073C15.9769 9.39073 16.3936 9.37407 19.9569 9.37407L20.0069 9.4074C25.9281 9.4074 30.5736 8.7874 30.8525 14.9474C30.9158 16.353 30.9303 16.7752 30.9303 20.333C30.9292 25.8241 31.0336 28.0652 29.3814 29.7252Z" fill="#332974"/>
<path d="M27.1159 14.8228C27.9996 14.8228 28.716 14.1064 28.716 13.2227C28.716 12.339 27.9996 11.6226 27.1159 11.6226C26.2322 11.6226 25.5157 12.339 25.5157 13.2227C25.5157 14.1064 26.2322 14.8228 27.1159 14.8228Z" fill="#332974"/>
</svg>
