<svg width="40" height="41" viewBox="0 0 40 41" fill="none" xmlns="http://www.w3.org/2000/svg">
<path d="M30.1492 22.6581C31.1827 23.6169 32.2736 24.5189 33.2006 25.5743C33.6101 26.0434 33.9978 26.5273 34.2943 27.0716C34.7146 27.8454 34.3339 28.6968 33.6037 28.743L29.0645 28.7411C27.8938 28.8334 26.9599 28.3856 26.1746 27.6251C25.5461 27.0169 24.9641 26.3696 24.3598 25.7409C24.1121 25.4839 23.8528 25.2421 23.543 25.051C22.9233 24.6688 22.3855 24.7858 22.0314 25.3998C21.6707 26.0244 21.5889 26.7159 21.5535 27.412C21.5049 28.4275 21.1818 28.6945 20.1081 28.741C17.8135 28.8438 15.6359 28.514 13.6129 27.4142C11.8294 26.4447 10.4463 25.076 9.24255 23.5264C6.89874 20.5092 5.10385 17.1937 3.49067 13.7853C3.12756 13.0174 3.39311 12.6052 4.28487 12.5906C5.76569 12.5633 7.24629 12.5652 8.72885 12.5887C9.33069 12.597 9.72912 12.925 9.96151 13.4652C10.7627 15.3369 11.743 17.1176 12.9735 18.7682C13.3012 19.2077 13.6353 19.6471 14.1112 19.9564C14.6376 20.2989 15.0383 20.1854 15.286 19.6282C15.4431 19.275 15.5119 18.8945 15.5473 18.5161C15.6647 17.2144 15.6801 15.9149 15.4743 14.6178C15.348 13.8083 14.8681 13.2842 14.0179 13.131C13.584 13.0529 13.6486 12.8995 13.8587 12.6642C14.2236 12.2585 14.5667 12.0059 15.2508 12.0059H20.3807C21.1883 12.1573 21.3677 12.502 21.4783 13.2741L21.4827 18.6882C21.4739 18.9871 21.6398 19.874 22.2064 20.0719C22.6599 20.2127 22.9589 19.868 23.231 19.5948C24.4592 18.3562 25.3358 16.8925 26.119 15.3768C26.4665 14.7103 26.7654 14.0182 27.055 13.3266C27.2696 12.8135 27.6063 12.561 28.2147 12.5721L33.152 12.5763C33.2984 12.5763 33.4465 12.5784 33.5883 12.6014C34.4202 12.7361 34.6482 13.0762 34.3913 13.8481C33.9864 15.0591 33.1986 16.0683 32.4284 17.0822C31.605 18.1647 30.7244 19.2101 29.9079 20.299C29.1577 21.2933 29.2173 21.7945 30.1492 22.6581Z" fill="#332974"/>
</svg>
