<svg width="40" height="41" viewBox="0 0 40 41" fill="none" xmlns="http://www.w3.org/2000/svg">
<path d="M25.033 19.2815L17.4156 14.8415C17.053 14.6301 16.6077 14.6322 16.2468 14.847C15.886 15.0618 15.664 15.457 15.664 15.8844V24.7644C15.664 25.1917 15.886 25.5869 16.2468 25.8018C16.6077 26.0166 17.0529 26.0187 17.4156 25.8072L25.033 21.3672C25.818 20.9185 25.8177 19.73 25.033 19.2815ZM18.0077 22.7005V17.9482L22.0843 20.3244L18.0077 22.7005ZM34.5497 13.9492C34.1686 11.1942 32.0121 9.08048 29.3054 8.80916C27.1673 8.59484 23.8172 8.33936 20 8.33936C16.1828 8.33936 12.8328 8.59484 10.6946 8.80916C7.98787 9.08042 5.83137 11.1942 5.45032 13.9492C4.84989 18.313 4.84989 22.3657 5.45032 26.7295C5.83137 29.4846 7.98787 31.5982 10.6946 31.8696C12.8327 32.0839 16.1828 32.3394 20 32.3394C23.8172 32.3394 27.1672 32.0839 29.3054 31.8696C32.0121 31.5983 34.1686 29.4846 34.5497 26.7295C35.1501 22.3657 35.1501 18.313 34.5497 13.9492ZM32.2289 26.3931C32.0001 28.0481 30.704 29.3179 29.077 29.481C26.9908 29.6901 23.7226 29.9394 20 29.9394C16.2774 29.9394 13.0092 29.6902 10.923 29.481C9.29602 29.3179 7.99994 28.0481 7.77107 26.393C7.48723 24.3408 7.34332 22.3041 7.34332 20.3394C7.34332 18.3746 7.48723 16.338 7.77107 14.2857C7.99994 12.6306 9.29602 11.3608 10.923 11.1978C13.0092 10.9886 16.2774 10.7393 20 10.7393C23.7226 10.7393 26.9908 10.9885 29.077 11.1978C30.704 11.3608 32.0001 12.6306 32.2289 14.2857C32.7986 18.4268 32.7986 22.252 32.2289 26.3931Z" fill="#332974"/>
</svg>
