<svg width="35" height="35" viewBox="0 0 35 35" fill="none" xmlns="http://www.w3.org/2000/svg">
<circle cx="17.5" cy="17.5" r="16.5" stroke="#332974" stroke-width="2"/>
<path d="M12.7867 14.905C13.9314 14.905 14.838 15.2393 15.5067 15.908C16.1867 16.5653 16.5267 17.5343 16.5267 18.815V24H14.8947V19.002C14.8947 18.1293 14.685 17.472 14.2657 17.03C13.8464 16.588 13.2457 16.367 12.4637 16.367C11.5797 16.367 10.8827 16.6277 10.3727 17.149C9.86271 17.659 9.60771 18.3957 9.60771 19.359V24H7.97571V11.386H9.60771V16.265C9.94771 15.8343 10.3897 15.5 10.9337 15.262C11.489 15.024 12.1067 14.905 12.7867 14.905ZM24.358 14.905C25.5027 14.905 26.4093 15.2393 27.078 15.908C27.758 16.5653 28.098 17.5343 28.098 18.815V24H26.466V19.002C26.466 18.1293 26.2563 17.472 25.837 17.03C25.4177 16.588 24.817 16.367 24.035 16.367C23.151 16.367 22.454 16.6277 21.944 17.149C21.434 17.659 21.179 18.3957 21.179 19.359V24H19.547V11.386H21.179V16.265C21.519 15.8343 21.961 15.5 22.505 15.262C23.0603 15.024 23.678 14.905 24.358 14.905Z" fill="#332974"/>
</svg>
