<svg width="45" height="45" viewBox="0 0 45 45" fill="none" xmlns="http://www.w3.org/2000/svg">
<path d="M38.1704 5.625C37.9832 5.62493 37.7985 5.66843 37.631 5.75213L28.4968 10.3204L18.1681 5.72924C18.1512 5.72204 18.1319 5.72077 18.1139 5.71356C18.0674 5.69619 18.0199 5.68171 17.9716 5.6702C17.9237 5.65728 17.8749 5.64718 17.8258 5.64004C17.7279 5.63199 17.6295 5.63199 17.5317 5.64004C17.4825 5.64718 17.4338 5.65728 17.3858 5.6702C17.3376 5.68171 17.2901 5.69619 17.2436 5.71356C17.2255 5.72077 17.2062 5.72197 17.1894 5.72924L6.3411 10.5506C5.90562 10.744 5.62502 11.1758 5.62509 11.6522V38.1697C5.6253 38.5774 5.8316 38.9575 6.17351 39.1797C6.51548 39.4023 6.9468 39.4368 7.31978 39.2713L17.6787 34.6669L28.0375 39.2713C28.0556 39.2785 28.0749 39.2713 28.093 39.2822C28.3848 39.4127 28.7198 39.4052 29.0054 39.2617C29.0247 39.2533 29.0464 39.2617 29.0657 39.2485L38.7085 34.4271C39.1172 34.2229 39.3753 33.8052 39.3751 33.3483V6.83093C39.3755 6.16521 38.8361 5.62528 38.1704 5.625ZM16.4733 32.5648L8.03579 36.3146V12.4357L16.4733 8.6859V32.5648ZM27.3216 36.3146L18.884 32.5648V8.6859L27.3216 12.4357V36.3146ZM36.9645 32.6034L29.7323 36.2194V12.3971L36.9645 8.7811V32.6034Z" fill="#332974"/>
</svg>
