<svg width="16" height="16" viewBox="0 0 16 16" fill="none" xmlns="http://www.w3.org/2000/svg">
<path d="M7.99998 9.33333C9.47065 9.33333 10.6666 8.13733 10.6666 6.66667C10.6666 5.196 9.47065 4 7.99998 4C6.52931 4 5.33331 5.196 5.33331 6.66667C5.33331 8.13733 6.52931 9.33333 7.99998 9.33333ZM7.99998 5.33333C8.73531 5.33333 9.33331 5.93133 9.33331 6.66667C9.33331 7.402 8.73531 8 7.99998 8C7.26465 8 6.66665 7.402 6.66665 6.66667C6.66665 5.93133 7.26465 5.33333 7.99998 5.33333Z" fill="white"/>
<path d="M7.61335 14.5426C7.72618 14.6232 7.86137 14.6665 8.00002 14.6665C8.13867 14.6665 8.27385 14.6232 8.38668 14.5426C8.58935 14.3993 13.3527 10.9599 13.3334 6.66659C13.3334 3.72592 10.9407 1.33325 8.00002 1.33325C5.05935 1.33325 2.66668 3.72592 2.66668 6.66325C2.64735 10.9599 7.41069 14.3993 7.61335 14.5426ZM8.00002 2.66659C10.206 2.66659 12 4.46059 12 6.66992C12.014 9.62859 9.07468 12.2853 8.00002 13.1566C6.92602 12.2846 3.98602 9.62725 4.00002 6.66659C4.00002 4.46059 5.79402 2.66659 8.00002 2.66659Z" fill="white"/>
</svg>
