<svg width="148" height="57" viewBox="0 0 148 57" fill="none" xmlns="http://www.w3.org/2000/svg">
<path d="M77.9755 36.8656L77.9544 28.0666L73.614 35.3116H72.097L67.7566 28.2346V36.8656H64.554V22.1656H67.3774L72.8976 31.3006L78.3336 22.1656H81.157L81.1781 36.8656H77.9755Z" fill="#332974"/>
<path d="M96.9921 24.9376H92.2725V36.8656H88.9013V24.9376H84.2028V22.1656H96.9921V24.9376Z" fill="#332974"/>
<path d="M112.691 22.1656L106.413 33.7996C105.809 34.9196 105.078 35.7666 104.221 36.3406C103.379 36.9146 102.459 37.2016 101.461 37.2016C100.689 37.2016 99.8881 37.0336 99.0593 36.6976L99.881 34.1146C100.471 34.2966 100.963 34.3876 101.356 34.3876C101.777 34.3876 102.157 34.2896 102.494 34.0936C102.831 33.8836 103.14 33.5616 103.421 33.1276L103.547 32.9596L97.7319 22.1656H101.377L105.296 30.0616L109.341 22.1656H112.691Z" fill="#332974"/>
<path d="M121.98 37.1176C120.477 37.1176 119.115 36.7956 117.893 36.1516C116.685 35.4936 115.73 34.5906 115.027 33.4426C114.339 32.2806 113.995 30.9716 113.995 29.5156C113.995 28.0596 114.339 26.7576 115.027 25.6096C115.73 24.4476 116.685 23.5446 117.893 22.9006C119.115 22.2426 120.484 21.9136 122.001 21.9136C123.28 21.9136 124.431 22.1376 125.457 22.5856C126.496 23.0336 127.367 23.6776 128.069 24.5176L125.878 26.5336C124.881 25.3856 123.645 24.8116 122.17 24.8116C121.257 24.8116 120.442 25.0146 119.726 25.4206C119.009 25.8126 118.448 26.3656 118.04 27.0796C117.647 27.7936 117.45 28.6056 117.45 29.5156C117.45 30.4256 117.647 31.2376 118.04 31.9516C118.448 32.6656 119.009 33.2256 119.726 33.6316C120.442 34.0236 121.257 34.2196 122.17 34.2196C123.645 34.2196 124.881 33.6386 125.878 32.4766L128.069 34.4926C127.367 35.3466 126.496 35.9976 125.457 36.4456C124.417 36.8936 123.259 37.1176 121.98 37.1176Z" fill="#332974"/>
<path d="M131.172 22.1656H134.564V31.7416L141.602 22.1656H144.804V36.8656H141.433V27.3106L134.396 36.8656H131.172V22.1656Z" fill="#332974"/>
<path fill-rule="evenodd" clip-rule="evenodd" d="M41.6292 17.2328L31.0647 12.2905C29.7416 11.6715 28.2003 11.6715 26.8772 12.2905L16.3127 17.2328C14.9895 17.8518 14.0286 19.0224 13.7018 20.4132L11.0926 31.5185C10.7658 32.9094 11.1087 34.3691 12.0244 35.4845L19.3352 44.3902C20.2509 45.5056 21.6395 46.1552 23.1081 46.1552H34.8338C36.3023 46.1552 37.691 45.5056 38.6066 44.3902L45.9175 35.4845C46.8331 34.3691 47.1761 32.9094 46.8493 31.5185L44.2401 20.4132C43.9133 19.0224 42.9523 17.8518 41.6292 17.2328ZM32.7778 8.8348C30.3721 7.70936 27.5698 7.70936 25.1641 8.8348L14.5996 13.7771C12.1939 14.9025 10.4467 17.0309 9.85253 19.5597L7.24331 30.665C6.64916 33.1939 7.27273 35.8479 8.93752 37.8759L16.2484 46.7816C17.9132 48.8096 20.438 49.9907 23.1081 49.9907H34.8338C37.5039 49.9907 40.0287 48.8096 41.6935 46.7816L49.0043 37.8759C50.6691 35.8479 51.2927 33.1939 50.6985 30.665L48.0893 19.5597C47.4952 17.0309 45.748 14.9025 43.3423 13.7771L32.7778 8.8348Z" fill="#332974"/>
</svg>
