<svg width="24" height="25" viewBox="0 0 24 25" fill="none" xmlns="http://www.w3.org/2000/svg">
<path d="M15.5 14.9906H14.71L14.43 14.7206C15.63 13.3206 16.25 11.4106 15.91 9.38062C15.44 6.60062 13.12 4.38062 10.32 4.04062C6.09001 3.52062 2.53002 7.08062 3.05002 11.3106C3.39002 14.1106 5.61002 16.4306 8.39002 16.9006C10.42 17.2406 12.33 16.6206 13.73 15.4206L14 15.7006V16.4906L18.25 20.7406C18.66 21.1506 19.33 21.1506 19.74 20.7406C20.15 20.3306 20.15 19.6606 19.74 19.2506L15.5 14.9906ZM9.50002 14.9906C7.01002 14.9906 5.00002 12.9806 5.00002 10.4906C5.00002 8.00062 7.01002 5.99062 9.50002 5.99062C11.99 5.99062 14 8.00062 14 10.4906C14 12.9806 11.99 14.9906 9.50002 14.9906Z" fill="#332974"/>
</svg>
